<svg width="1011" height="333" viewBox="0 0 1011 333" fill="none" xmlns="http://www.w3.org/2000/svg">
<path d="M0.629395 58.6866V0.111328H143.572V58.6866H136.427L113.832 13.2039H95.8285V316.497H113.832L136.427 270.733H143.572V330.717H0.629395V270.733H10.0381L30.5154 316.497H49.2558V13.2039H30.5154L10.0381 58.6866H0.629395Z" fill="white"/>
<path fill-rule="evenodd" clip-rule="evenodd" d="M167.046 57.5587V0.111328L261.041 0.111349V312.938L369.037 183.343H381.637V332.076H217.125V15.4706H198.501L175.674 57.5587H167.046ZM337.537 247.816L281 314.572H337.537V247.816Z" fill="white"/>
<path d="M408.432 184.275V241.137H416.668L440.199 197.686H453.142L542.197 332.074H628.556L628.349 273.062H618.832L600.214 315.928H587.271V184.275H542.197V304.754L461.824 184.275H408.432Z" fill="white"/>
<path d="M647.445 273.064H655.541L676.272 315.93H690.729V18.5363H676.272L655.541 63.0056H647.445V0.111328H732.654V240.818L810.548 181.552H864.038V235.382H856.636L835.186 195.667H820.865L762.905 238.1L818.147 315.634H835.186L856.636 273.064H864.038V332.076H807.83L749.523 248.21L732.654 260.637V332.076H647.445V273.064Z" fill="white"/>
<path d="M884.477 150.062V206.474H891.878L912.118 165.413H925.303V315.928H912.118L891.878 275.78H884.477V332.074H1010.02V275.78H999.9L981.106 315.928H969.194V150.063L884.477 150.062Z" fill="white"/>
<path d="M927.151 128.306H967.397V91.7188L927.151 128.306Z" fill="white"/>
</svg>
