<?xml version="1.0" encoding="UTF-8" standalone="no" ?>
<!DOCTYPE svg PUBLIC "-//W3C//DTD SVG 1.1//EN" "http://www.w3.org/Graphics/SVG/1.1/DTD/svg11.dtd">
<svg xmlns="http://www.w3.org/2000/svg" xmlns:xlink="http://www.w3.org/1999/xlink" version="1.1" width="500" height="419.58152" viewBox="126.3583327872015 188.26524639202495 257.8022179276535 216.3380929149122" xml:space="preserve">
<desc>Created with Fabric.js 5.3.0</desc>
<defs>
</defs>
<g transform="matrix(1 0 0 1 266.5194569462 296.4342928495)" id="rYWupOdob3A9u6YXIPcXe"  >
<path style="stroke: rgb(0,0,0); stroke-width: 0; stroke-dasharray: none; stroke-linecap: butt; stroke-dashoffset: 0; stroke-linejoin: miter; stroke-miterlimit: 4; fill: rgb(125,118,106); fill-rule: nonzero; opacity: 1;"  transform=" translate(0, 0)" d="M -83.05565 68.7469 C -112.37997 44.49087 -118.7687 4.5251499999999965 -111.52135 -28.44147000000001 C -104.27401 -61.40808000000001 -64.4944 -97.59974000000001 -27.882080000000002 -105.41830000000002 C 8.730239999999995 -113.23686000000002 69.4908 -105.41731000000001 94.35469 -68.59882000000002 C 119.21859 -31.78033000000002 124.53969000000001 17.77357999999998 88.41272000000001 56.23285999999999 C 52.28575000000001 94.69214 -39.09992 109.43892999999998 -38.807869999999994 108.08409999999998 C -38.515809999999995 106.72926999999997 51.63770000000001 81.89027999999998 79.18542000000001 51.60885999999998 C 106.73314 21.32742999999998 116.60495 -22.883890000000022 86.85585 -62.71236000000002 C 57.106750000000005 -102.54082000000002 0.6078100000000006 -103.53893000000002 -26.119919999999993 -97.51845000000002 C -52.84764 -91.49797000000001 -93.29387 -64.68980000000002 -101.89818 -26.19553000000002 C -110.5025 12.298749999999984 -95.77494 44.90564999999998 -76.81338 62.226909999999975 C -57.85182 79.54817999999997 -16.916969999999992 84.55575999999998 -18.03484999999999 91.26407999999998 C -19.15272999999999 97.97238999999998 -53.73133999999999 93.00291999999997 -83.05565999999999 68.74688999999998 z" stroke-linecap="round" />
</g>
<g transform="matrix(0.7594238416 0.0798186621 -0.0797209556 0.7584942266 182.8807453048 305.385782174)" id="Xx1zq68zpE_RpskTQL3f_"  >
<path style="stroke: rgb(0,0,0); stroke-width: 0; stroke-dasharray: none; stroke-linecap: butt; stroke-dashoffset: 0; stroke-linejoin: miter; stroke-miterlimit: 4; fill: rgb(125,118,106); fill-rule: nonzero; opacity: 1;"  transform=" translate(0, 0)" d="M 8.18816 -52.23893 C 28.14746 -58.361470000000004 49.51281 -57.51377 55.36135 -49.81175 C 61.20988 -42.109730000000006 55.1787 -21.897900000000003 37.58161 -0.03731000000000506 C 19.984519999999996 21.823289999999997 -21.687110000000004 58.76235 -22.63653 56.150879999999994 C -23.58595 53.53941 24.18797 6.562279999999994 33.78393 -10.483180000000011 C 43.379889999999996 -27.52863000000001 48.067539999999994 -37.02001000000001 43.42402 -42.13793000000001 C 38.780499999999996 -47.25586000000001 28.805749999999996 -48.91566000000001 8.18817 -42.13793000000001 C -12.42941 -35.36020000000001 -50.45776 -8.669750000000015 -56.963350000000005 -13.35005000000001 C -63.46894 -18.03035000000001 -11.771140000000003 -46.11640000000001 8.18817 -52.238940000000014 z" stroke-linecap="round" />
</g>
<g transform="matrix(1 0 0 1 327.1571872352 277.309254848)" id="9feXeGgivrkm1xydJlYDu"  >
<path style="stroke: rgb(0,0,0); stroke-width: 0; stroke-dasharray: none; stroke-linecap: butt; stroke-dashoffset: 0; stroke-linejoin: miter; stroke-miterlimit: 4; fill: rgb(125,118,106); fill-rule: nonzero; opacity: 1;"  transform=" translate(0, 0)" d="M -4.17678 -38.12903 C -24.1062 -37.33997 -42.49334 -34.91688 -50.59263 -22.57807 C -58.691919999999996 -10.23926 -59.29448 7.13673 -51.38413 20.97026 C -43.47378 34.80378 -29.878629999999998 40.61449 -20.699099999999998 37.42893 C -11.519579999999998 34.24337 -1.358439999999998 18.89385 -2.7560399999999987 2.6525099999999995 C -4.1536399999999984 -13.588830000000002 -17.718069999999997 -27.071170000000002 -17.718069999999997 -27.071170000000002 C -17.718069999999997 -27.071170000000002 -0.9844599999999986 -28.117130000000003 19.637120000000003 -27.70408 C 40.258700000000005 -27.291040000000002 55.897560000000006 -22.164730000000002 56.932480000000005 -27.071170000000002 C 58.98944 -36.823 15.752640000000007 -38.9181 -4.176779999999994 -38.12904 z" stroke-linecap="round" />
</g>
<g transform="matrix(1 0 0 1 178.720679484 300.8983346478)" id="W2XPBWo20pynDx13Hd1vJ"  >
<path style="stroke: rgb(0,0,0); stroke-width: 0; stroke-dasharray: none; stroke-linecap: butt; stroke-dashoffset: 0; stroke-linejoin: miter; stroke-miterlimit: 4; fill: rgb(125,118,106); fill-rule: nonzero; opacity: 1;"  transform=" translate(0, 0)" d="M -52.21419 27.83993 C -54.53199 22.28338 -29.239410000000003 11.313389999999998 -5.505920000000003 -1.3669600000000024 C 18.227569999999996 -14.047310000000003 51.21964 -29.937780000000004 52.333189999999995 -28.83967 C 53.44673999999999 -27.741560000000003 22.419829999999994 -9.72672 -1.051710000000007 3.0254699999999985 C -24.523250000000008 15.77766 -49.896390000000004 33.39648 -52.214200000000005 27.83993 z" stroke-linecap="round" />
</g>
<g transform="matrix(1 0 0 1 290.5841738495 337.4189054171)" id="m_gp9fQSTXvQlQpOf4eiT"  >
<path style="stroke: rgb(0,0,0); stroke-width: 0; stroke-dasharray: none; stroke-linecap: butt; stroke-dashoffset: 0; stroke-linejoin: miter; stroke-miterlimit: 4; fill: rgb(125,118,106); fill-rule: nonzero; opacity: 1;"  transform=" translate(0, 0)" d="M -23.76945 20.06529 C -26.58015 14.507710000000001 -8.60004 6.120760000000001 -0.5725699999999989 -0.20760999999999896 C 7.4549 -6.535979999999999 7.403740000000001 -7.024189999999999 12.627020000000002 -11.71304 C 16.09155 -14.82309 22.95825 -21.96335 23.7939 -21.827309999999997 C 25.88942 -21.486179999999997 15.51261 -2.2714899999999965 3.426840000000002 7.426370000000002 C -8.658929999999998 17.124230000000004 -20.958759999999998 25.622880000000002 -23.76945 20.0653 z" stroke-linecap="round" />
</g>
<g transform="matrix(1 0 0 1 307.8611476346 355.6358631602)" id="quVrH7C7QK9dSSHOfEKEU"  >
<path style="stroke: rgb(0,0,0); stroke-width: 0; stroke-dasharray: none; stroke-linecap: butt; stroke-dashoffset: 0; stroke-linejoin: miter; stroke-miterlimit: 4; fill: rgb(125,118,106); fill-rule: nonzero; opacity: 1;"  transform=" translate(0, 0)" d="M -25.039 -7.28743 C -30.645020000000002 -4.7302 -28.52737 7.08238 -12.80371 18.83022 C 2.9199599999999997 30.57805 12.96015 29.327710000000003 20.25611 26.33182 C 27.55207 23.33592 32.187709999999996 2.6898300000000006 21.8065 -11.758009999999999 C 11.42529 -26.205849999999998 1.731189999999998 -29.282619999999998 -0.5684199999999997 -28.16498 C -2.8680299999999996 -27.04733 9.52825 -20.62127 14.96099 -8.837810000000001 C 20.39373 2.9456499999999988 19.39008 16.15945 14.96099 17.41846 C 10.5319 18.67747 9.542840000000002 21.56073 -4.333129999999999 12.47728 C -18.2091 3.3938300000000012 -19.432989999999997 -9.844649999999998 -25.039009999999998 -7.2874300000000005 z" stroke-linecap="round" />
</g>
</svg>